<?xml version="1.0" encoding="UTF-8" standalone="no"?>
<!-- Generator: Adobe Illustrator 19.0.0, SVG Export Plug-In . SVG Version: 6.00 Build 0)  -->

<svg
   version="1.1"
   id="Capa_1"
   x="0px"
   y="0px"
   viewBox="0 0 14 14"
   xml:space="preserve"
   sodipodi:docname="arrow-up-prelight.svg"
   width="14"
   height="14"
   inkscape:version="1.1.1 (3bf5ae0d25, 2021-09-20)"
   xmlns:inkscape="http://www.inkscape.org/namespaces/inkscape"
   xmlns:sodipodi="http://sodipodi.sourceforge.net/DTD/sodipodi-0.dtd"
   xmlns="http://www.w3.org/2000/svg"
   xmlns:svg="http://www.w3.org/2000/svg"
   xmlns:rdf="http://www.w3.org/1999/02/22-rdf-syntax-ns#"
   xmlns:cc="http://creativecommons.org/ns#"
   xmlns:dc="http://purl.org/dc/elements/1.1/"><metadata
     id="metadata39"><rdf:RDF><cc:Work
         rdf:about=""><dc:format>image/svg+xml</dc:format><dc:type
           rdf:resource="http://purl.org/dc/dcmitype/StillImage" /></cc:Work></rdf:RDF></metadata><defs
     id="defs37" /><sodipodi:namedview
     pagecolor="#ffffff"
     bordercolor="#666666"
     borderopacity="1"
     objecttolerance="10"
     gridtolerance="10"
     guidetolerance="10"
     inkscape:pageopacity="0"
     inkscape:pageshadow="2"
     inkscape:window-width="1747"
     inkscape:window-height="918"
     id="namedview35"
     showgrid="false"
     inkscape:pagecheckerboard="true"
     inkscape:zoom="44.953451"
     inkscape:cx="4.437924"
     inkscape:cy="7.630115"
     inkscape:window-x="167"
     inkscape:window-y="119"
     inkscape:window-maximized="0"
     inkscape:current-layer="Capa_1"
     width="14px" /><g
     id="g4"
     transform="translate(0,-30.999001)" /><g
     id="g6"
     transform="translate(0,-30.999001)" /><g
     id="g8"
     transform="translate(0,-30.999001)" /><g
     id="g10"
     transform="translate(0,-30.999001)" /><g
     id="g12"
     transform="translate(0,-30.999001)" /><g
     id="g14"
     transform="translate(0,-30.999001)" /><g
     id="g16"
     transform="translate(0,-30.999001)" /><g
     id="g18"
     transform="translate(0,-30.999001)" /><g
     id="g20"
     transform="translate(0,-30.999001)" /><g
     id="g22"
     transform="translate(0,-30.999001)" /><g
     id="g24"
     transform="translate(0,-30.999001)" /><g
     id="g26"
     transform="translate(0,-30.999001)" /><g
     id="g28"
     transform="translate(0,-30.999001)" /><g
     id="g30"
     transform="translate(0,-30.999001)" /><g
     id="g32"
     transform="translate(0,-30.999001)" /><path
     d="m 7.1568613,4.111474 3.8096157,7.48388 c 0.0402,0.07923 0.04438,0.181936 0.01181,0.26658 C 10.94533,11.946835 10.880569,12 10.809711,12 H 3.1904817 C 3.1196203,12 3.0546684,11.946844 3.0217156,11.861934 3.0072356,11.824253 3,11.78297 3,11.741941 3,11.69059 3.0114311,11.639493 3.0337156,11.59536 L 6.8433295,4.11148 C 6.8789482,4.041547 6.9374282,4 7.0000961,4 7.0627631,4 7.1212418,4.0418 7.1568612,4.11148 Z"
     id="path2"
     inkscape:connector-curvature="0"
     style="fill:#00bfff;fill-opacity:1;stroke-width:0.221712" /></svg>
